<?xml version="1.0" encoding="UTF-8" standalone="no"?>
<!DOCTYPE svg PUBLIC "-//W3C//DTD SVG 1.1//EN" "http://www.w3.org/Graphics/SVG/1.1/DTD/svg11.dtd">
<svg width="100%" height="100%" viewBox="0 0 354 317" version="1.1" xmlns="http://www.w3.org/2000/svg" xmlns:xlink="http://www.w3.org/1999/xlink" xml:space="preserve" xmlns:serif="http://www.serif.com/" style="fill-rule:evenodd;clip-rule:evenodd;stroke-linejoin:round;stroke-miterlimit:2;">
    <g transform="matrix(1,0,0,1,-104.139299,-58.708187)">
        <g transform="matrix(1,0,0,1,-0.528509,-0.274896)">
            <g transform="matrix(1,0,0,1,8.016075,3.679824)">
                <path d="M263.179,353.501C263.164,286.437 262.807,286.223 265.552,279.522C279.619,245.192 323.472,271.915 355.314,247.239C407.404,206.872 368.619,141.031 284.49,135.656C244.737,133.116 232.21,135.049 223.965,149.732C218.044,160.277 221.058,161.23 220.567,318.5C220.456,353.753 221.146,355.871 217.493,355.767C184.628,354.832 178.312,350.88 176.582,350.255C132.675,334.408 140.28,298.75 126.172,252.601C109.289,197.376 55.06,168.508 157.222,96.106C214.915,55.219 241.364,44.213 295.309,66.935C335.577,83.896 336.513,83.357 386.517,79.97C410.202,78.366 442.728,93.6 449.08,132.558C452.962,156.366 447.178,195.241 443.858,211.569C422.829,314.967 395.331,331.908 385.742,340.772C350.097,373.721 330.747,380.401 265.576,361.291C263.49,360.679 263.207,354.152 263.179,353.501Z" style="fill:rgb(28,28,28);"/>
            </g>
        </g>
    </g>
</svg>
